<?xml version="1.0" standalone="no"?>
<!DOCTYPE svg PUBLIC "-//W3C//DTD SVG 20010904//EN"
 "http://www.w3.org/TR/2001/REC-SVG-20010904/DTD/svg10.dtd">
<svg version="1.0" xmlns="http://www.w3.org/2000/svg"
 width="300.000000pt" height="300.000000pt" viewBox="0 0 300.000000 300.000000"
 preserveAspectRatio="xMidYMid meet">
<metadata>
Created by potrace 1.11, written by Peter Selinger 2001-2013
</metadata>
<g transform="translate(0.000000,300.000000) scale(0.100000,-0.100000)"
fill="#000000" stroke="none">
<path d="M1183 2770 c-124 -25 -196 -108 -192 -223 1 -34 -8 -82 -27 -139
l-28 -87 -32 24 c-87 66 -193 66 -281 -1 -79 -60 -102 -188 -50 -277 43 -73
126 -118 205 -111 17 1 32 0 32 -4 0 -3 -70 -213 -154 -466 -85 -254 -157
-477 -159 -496 -9 -84 43 -188 147 -294 66 -67 202 -166 227 -166 13 0 7 -21
-6 -22 -6 0 -18 -4 -28 -9 -13 -7 -19 -6 -23 6 -4 10 -10 12 -18 6 -6 -4 -29
-7 -50 -6 -24 2 -34 0 -26 -5 8 -5 18 -6 23 -3 5 3 8 0 5 -8 -3 -8 -10 -15
-16 -15 -7 -1 -16 -2 -22 -3 -5 0 -10 -6 -10 -12 0 -8 6 -7 17 2 15 12 16 12
10 -4 -4 -10 -7 -21 -7 -23 0 -3 -4 -3 -8 0 -5 3 -9 -1 -9 -8 0 -19 25 -8 29
12 3 12 6 14 11 5 5 -7 -1 -21 -12 -32 -19 -19 -19 -20 -1 -18 10 1 16 5 14 9
-3 4 2 8 10 8 8 0 20 -8 25 -17 6 -10 11 -13 11 -6 0 6 -4 15 -10 18 -5 3 -10
10 -10 16 0 5 9 4 20 -3 13 -9 18 -20 15 -33 -5 -18 -5 -18 7 2 7 12 18 22 23
23 6 1 12 3 14 6 2 2 -6 1 -18 -1 -12 -2 -19 0 -16 5 4 6 -2 7 -12 3 -13 -4
-12 0 6 15 13 12 22 22 20 23 -2 0 -12 2 -22 4 -10 2 -16 -2 -15 -8 2 -7 -2
-14 -7 -15 -6 -2 -17 -9 -25 -15 -8 -6 -7 -2 4 10 17 20 17 23 2 29 -9 3 -13
10 -10 15 3 5 11 6 17 2 20 -12 37 -12 37 0 0 7 5 5 10 -3 6 -10 10 -11 10 -2
0 6 5 12 11 12 8 0 7 -6 -2 -17 -12 -14 -12 -16 1 -11 8 3 14 12 14 20 -1 8 4
15 11 15 7 0 10 -8 7 -20 -4 -14 -2 -18 7 -12 7 4 11 16 8 26 -3 10 -1 22 4
25 5 3 9 0 9 -6 0 -6 4 -9 8 -6 4 2 14 1 22 -5 11 -6 12 -9 2 -9 -7 0 -11 -4
-7 -9 3 -5 1 -12 -4 -16 -6 -3 -8 4 -6 17 4 22 4 22 -10 4 -8 -11 -15 -24 -15
-29 0 -4 -8 -6 -18 -3 -21 7 -27 -20 -9 -41 14 -19 38 -16 30 4 -4 11 -3 14 5
9 15 -9 16 -36 1 -36 -5 0 -7 -4 -4 -10 3 -5 16 -10 28 -9 18 0 19 2 5 7 -13
5 -15 11 -8 22 6 9 10 10 10 3 0 -13 47 -12 70 1 8 5 12 6 8 1 -12 -13 32 -39
44 -27 6 6 6 12 -3 17 -8 5 -10 4 -5 -3 4 -7 2 -12 -3 -12 -6 0 -11 7 -11 15
0 20 14 19 31 -1 11 -14 10 -18 -6 -31 -20 -14 -20 -15 0 -11 12 2 19 -2 17
-9 -1 -7 2 -13 8 -13 13 0 13 17 0 25 -12 7 -4 25 11 25 6 0 8 -4 4 -9 -3 -6
3 -15 14 -20 15 -8 23 -7 33 3 12 11 17 11 33 0 23 -17 35 -18 35 -2 0 6 -3 8
-7 4 -4 -3 -13 4 -20 16 -7 13 -12 17 -13 10 0 -7 -4 -11 -9 -7 -5 3 -16 -1
-24 -9 -9 -9 -19 -11 -28 -5 -12 8 -7 13 12 11 3 -1 6 6 6 14 0 16 -13 19 -20
4 -3 -6 -4 -5 -3 2 2 7 14 13 29 13 14 1 23 -3 20 -9 -4 -5 1 -7 10 -3 9 3 19
2 22 -3 4 -6 11 -10 16 -10 6 0 8 4 4 9 -3 5 -1 12 4 16 6 3 8 -3 6 -15 -2
-11 0 -20 4 -20 5 0 11 -9 14 -20 6 -23 37 -17 37 7 0 8 5 11 10 8 7 -4 7 -12
0 -25 -18 -34 -10 -36 10 -2 19 31 40 43 40 22 0 -5 -6 -10 -12 -10 -9 0 -8
-3 2 -10 9 -5 19 -5 26 0 6 6 14 7 17 3 4 -3 13 0 22 7 12 10 16 9 21 -4 3 -9
11 -16 17 -16 7 0 7 4 -1 12 -16 16 -15 33 1 19 10 -8 17 -7 26 2 11 10 12 7
6 -12 -5 -16 -4 -21 4 -17 6 4 11 14 11 22 0 20 18 17 32 -6 17 -26 22 -25 37
6 8 19 9 30 0 40 -12 15 -3 38 12 29 5 -4 9 -2 9 4 0 13 -38 35 -63 37 -10 1
-16 -4 -14 -10 2 -6 11 -10 20 -8 8 1 18 -2 22 -8 4 -6 -1 -7 -11 -3 -11 4
-15 3 -10 -5 3 -6 1 -14 -6 -18 -7 -4 -10 -4 -6 0 7 9 -13 36 -22 31 -3 -2 -6
5 -6 15 0 10 4 16 8 14 4 -3 8 0 8 5 0 11 98 151 162 233 l30 38 44 -31 c117
-80 220 -110 369 -105 173 5 287 55 410 180 248 251 225 655 -51 885 -31 26
-50 49 -47 57 3 7 27 27 53 43 108 66 131 174 67 304 -34 68 -134 197 -188
242 -97 80 -135 109 -215 162 -132 89 -382 207 -504 239 -143 37 -190 45 -280
48 -58 2 -124 0 -147 -4z m-373 -2275 c0 -7 -30 -13 -34 -7 -3 4 4 9 15 9 10
1 19 0 19 -2z m180 -30 c0 -2 -7 -1 -17 2 -11 4 -14 3 -9 -5 5 -8 2 -10 -9 -6
-11 5 -14 2 -9 -12 5 -16 4 -16 -5 -4 -8 11 -7 18 4 26 8 6 11 15 7 19 -4 4 3
2 16 -4 12 -6 22 -14 22 -16z m-228 -9 c7 4 8 2 4 -5 -9 -13 -26 -5 -25 12 0
9 2 8 6 -1 2 -6 10 -9 15 -6z m162 -22 c5 -14 4 -15 -9 -4 -17 14 -19 20 -6
20 5 0 12 -7 15 -16z m86 -8 c0 -2 -7 -7 -16 -10 -8 -3 -12 -2 -9 4 6 10 25
14 25 6z m256 -36 c-3 -40 -21 -59 -29 -30 -4 15 -2 20 7 17 7 -3 13 1 13 8 0
8 -7 11 -16 8 -11 -4 -9 0 4 10 11 9 21 17 22 17 0 0 0 -14 -1 -30z m59 18 c5
4 5 2 2 -4 -4 -7 3 -11 18 -11 14 0 22 4 18 10 -3 5 -1 7 5 3 5 -3 13 0 16 6
3 7 4 4 3 -6 -1 -10 4 -21 11 -23 8 -3 10 2 6 14 -4 13 -3 14 4 5 13 -19 16
-19 38 -2 18 14 18 14 5 -2 -7 -10 -10 -18 -7 -18 4 0 4 -5 1 -10 -5 -8 -11
-8 -19 -1 -9 7 -19 6 -35 -5 -12 -9 -25 -13 -28 -10 -3 3 -13 0 -22 -7 -14
-11 -14 -10 -2 6 8 10 20 16 28 13 8 -3 11 -1 8 5 -4 5 -15 7 -25 4 -10 -3
-21 -1 -25 5 -5 7 -12 5 -21 -7 -7 -10 -14 -16 -14 -13 -8 35 -7 38 8 32 15
-5 16 -4 2 14 -14 17 -13 18 1 7 9 -7 20 -9 24 -5z m-235 -8 c0 -5 -2 -10 -4
-10 -3 0 -8 5 -11 10 -3 6 -1 10 4 10 6 0 11 -4 11 -10z m419 -2 c4 8 10 6 18
-7 7 -11 8 -23 2 -32 -8 -11 -13 -9 -30 10 -17 21 -22 22 -30 10 -10 -16 -12
-8 -3 15 5 13 9 14 21 4 11 -9 16 -9 22 0z"/>
<path d="M1506 381 c-4 -5 -2 -12 3 -15 5 -4 12 -2 15 3 4 5 2 12 -3 15 -5 4
-12 2 -15 -3z"/>
<path d="M737 2622 c-22 -25 -21 -45 3 -67 17 -15 24 -16 45 -7 14 6 26 16 26
22 1 5 2 16 3 23 3 18 -24 47 -44 47 -9 0 -24 -8 -33 -18z"/>
<path d="M1625 540 c-3 -6 1 -7 9 -4 18 7 21 14 7 14 -6 0 -13 -4 -16 -10z"/>
<path d="M1583 511 c1 -13 -4 -26 -11 -28 -6 -3 -10 1 -9 9 2 7 2 9 -1 5 -2
-4 -10 0 -18 10 -13 17 -14 17 -8 -1 6 -16 5 -17 -15 -6 -21 10 -22 10 -12 -8
6 -10 22 -27 36 -36 25 -17 29 -44 6 -38 -15 3 -14 -11 1 -26 16 -16 29 -15
23 1 -3 6 5 18 17 26 13 7 20 10 16 6 -3 -3 1 -15 10 -26 18 -21 38 -26 26 -7
-4 6 -3 8 2 5 5 -3 17 8 26 24 19 33 7 40 -16 8 -15 -22 -41 -17 -32 7 6 17 1
17 -26 3 -15 -8 -19 -8 -14 0 4 6 2 11 -3 11 -6 0 -11 4 -11 9 0 5 11 8 25 7
14 -2 22 1 18 7 -4 6 -1 7 7 2 9 -6 11 -4 5 6 -7 11 -6 12 7 2 8 -7 19 -9 23
-5 5 4 5 2 1 -5 -4 -8 0 -11 13 -8 22 4 33 -15 21 -36 -9 -14 5 -39 22 -39 6
0 5 7 -2 15 -10 13 -11 18 -1 28 10 9 11 8 6 -5 -10 -26 2 -22 21 7 14 22 14
26 1 46 -9 12 -13 29 -10 38 4 13 3 14 -5 2 -7 -10 -7 -21 -1 -32 5 -10 6 -19
1 -22 -4 -2 0 -2 8 0 12 3 13 2 2 -8 -10 -11 -16 -10 -30 5 -9 11 -11 16 -4
12 6 -4 12 -2 12 3 0 14 -13 14 -28 -1 -9 -9 -12 -9 -12 0 0 6 8 16 18 21 9 6
12 11 5 11 -6 0 -15 -5 -18 -10 -8 -12 -37 -9 -47 5 -4 5 -10 2 -14 -8 -3 -9
-10 -17 -16 -17 -5 0 -7 3 -5 8 3 4 1 16 -4 27 -8 18 -8 18 -6 -4z m-29 -38
c4 -11 1 -11 -14 -3 -24 13 -25 17 -5 17 8 0 16 -6 19 -14z"/>
<path d="M1831 501 c-6 -10 -7 -21 -4 -25 3 -3 2 -6 -4 -6 -18 0 -23 13 -10
29 10 14 10 14 -4 4 -9 -7 -20 -9 -24 -5 -5 4 -5 2 -1 -5 3 -6 -1 -16 -11 -21
-19 -11 -27 -69 -10 -79 6 -4 8 2 5 15 -4 15 -2 20 5 15 7 -4 7 0 -1 9 -16 20
-7 25 35 23 17 0 30 2 27 6 -5 9 22 20 30 12 3 -3 -1 -11 -10 -17 -16 -12 -9
-50 8 -40 5 3 4 13 -4 22 -12 15 -11 16 5 3 14 -11 17 -11 17 0 0 8 6 5 14 -6
8 -11 12 -24 9 -29 -4 -5 0 -6 7 -1 9 5 11 4 6 -3 -4 -7 -2 -12 5 -12 7 0 10
-2 7 -5 -11 -12 -39 8 -34 24 4 11 2 10 -9 -3 -8 -11 -15 -15 -15 -10 0 6 -6
11 -12 11 -7 0 -22 4 -33 7 -14 5 -13 3 5 -9 14 -9 17 -14 7 -11 -12 4 -16 2
-12 -7 4 -6 1 -5 -7 3 -7 8 -19 16 -26 18 -19 3 -14 -18 6 -26 21 -9 22 -34 2
-44 -10 -5 -6 -7 10 -5 18 1 24 -2 22 -13 -2 -8 0 -12 4 -8 4 4 12 3 19 -2 8
-7 12 -5 12 5 0 8 -2 13 -5 11 -5 -5 -42 26 -42 35 0 4 17 0 38 -9 28 -12 38
-21 35 -33 -3 -9 -1 -19 4 -22 5 -3 8 6 7 21 0 15 -8 29 -20 33 -21 8 -20 8
14 15 16 3 21 0 17 -8 -3 -7 1 -3 10 9 17 22 51 21 38 -1 -3 -6 3 -3 14 7 27
23 40 22 18 -3 -24 -26 -11 -26 16 1 15 15 24 18 34 9 15 -13 28 11 19 35 -4
10 -1 14 7 12 8 -2 11 -2 6 0 -4 3 -4 10 0 16 3 7 -3 4 -14 -5 -29 -27 -40
-22 -14 6 13 14 21 31 18 38 -4 9 -6 8 -6 -4 -1 -11 -7 -15 -21 -11 -11 3 -20
0 -20 -6 0 -6 8 -8 18 -4 15 6 15 5 3 -10 -13 -17 -15 -16 -33 3 -10 11 -24
20 -30 20 -6 0 -8 10 -5 23 6 21 6 21 -9 2 -13 -17 -12 -20 3 -30 18 -10 24
-38 10 -51 -6 -6 -9 3 -6 22 1 12 -24 22 -43 19 -10 -2 -18 0 -18 6 0 5 6 9
14 9 8 0 17 7 20 16 10 25 7 25 -15 3 -16 -16 -23 -18 -35 -9 -7 7 -11 16 -8
21 3 5 0 9 -5 9 -16 0 -13 -16 4 -30 8 -7 15 -17 15 -23 0 -6 -13 2 -30 18
-16 15 -27 32 -24 37 3 4 3 8 0 8 -3 0 -10 -8 -15 -19z m-27 -29 c3 -5 -1 -9
-9 -9 -8 0 -12 4 -9 9 3 4 7 8 9 8 2 0 6 -4 9 -8z m116 -32 c0 13 1 13 10 0 9
-13 10 -13 10 0 0 13 2 13 9 1 6 -9 5 -21 -2 -32 -10 -16 -12 -15 -29 6 -10
13 -18 27 -18 32 0 4 5 1 10 -7 9 -13 10 -13 10 0z m125 -30 c8 0 15 -4 15 -9
0 -11 -49 -11 -56 1 -3 5 -11 2 -17 -6 -8 -11 -17 -13 -27 -6 -8 5 -11 12 -7
17 5 4 12 2 16 -6 6 -10 10 -8 16 6 5 10 7 25 6 33 -2 10 4 8 19 -7 11 -13 27
-23 35 -23z m-150 -33 c3 -4 2 -5 -2 -2 -3 3 -12 0 -18 -5 -7 -6 -20 -7 -30
-4 -13 5 -14 9 -3 15 14 9 45 7 53 -4z"/>
<path d="M1926 418 c3 -5 10 -6 15 -3 13 9 11 12 -6 12 -8 0 -12 -4 -9 -9z"/>
<path d="M665 500 c-3 -6 1 -7 9 -4 18 7 21 14 7 14 -6 0 -13 -4 -16 -10z"/>
<path d="M1910 500 c-9 -6 -10 -10 -3 -10 6 0 15 5 18 10 8 12 4 12 -15 0z"/>
<path d="M604 482 c23 -26 23 -26 23 -7 0 8 -3 13 -5 10 -3 -3 -12 1 -21 7
-10 8 -9 4 3 -10z"/>
<path d="M1747 489 c7 -7 15 -10 18 -7 3 3 -2 9 -12 12 -14 6 -15 5 -6 -5z"/>
<path d="M1990 491 c0 -5 5 -13 10 -16 6 -3 10 -2 10 4 0 5 -4 13 -10 16 -5 3
-10 2 -10 -4z"/>
<path d="M473 475 c0 -8 4 -12 9 -9 5 3 6 10 3 15 -9 13 -12 11 -12 -6z"/>
<path d="M672 479 c-20 -7 -23 -29 -5 -29 4 0 3 3 -1 7 -3 4 6 12 21 19 32 14
19 17 -15 3z"/>
<path d="M2235 480 c3 -5 8 -10 11 -10 2 0 4 5 4 10 0 6 -5 10 -11 10 -5 0 -7
-4 -4 -10z"/>
<path d="M534 462 c4 -3 14 -7 22 -8 9 -1 13 0 10 4 -4 3 -14 7 -22 8 -9 1
-13 0 -10 -4z"/>
<path d="M587 459 c7 -7 15 -10 18 -7 3 3 -2 9 -12 12 -14 6 -15 5 -6 -5z"/>
<path d="M1633 445 c0 -25 0 -25 18 -9 11 9 19 19 19 22 0 3 -3 2 -7 -1 -3 -4
-12 -2 -18 3 -9 8 -12 4 -12 -15z"/>
<path d="M2094 458 c-7 -10 14 -48 26 -48 6 0 10 5 10 11 0 5 -4 8 -9 5 -5 -3
-12 1 -15 10 -8 21 -8 26 2 20 4 -2 14 -1 22 4 11 7 9 9 -8 7 -13 -1 -26 -5
-28 -9z"/>
<path d="M2156 458 c3 -5 10 -6 15 -3 13 9 11 12 -6 12 -8 0 -12 -4 -9 -9z"/>
<path d="M2216 447 c3 -10 9 -15 12 -12 3 3 0 11 -7 18 -10 9 -11 8 -5 -6z"/>
<path d="M625 440 c-3 -6 1 -7 9 -4 18 7 21 14 7 14 -6 0 -13 -4 -16 -10z"/>
<path d="M825 441 c-3 -5 -1 -12 4 -15 5 -3 11 1 15 9 6 16 -9 21 -19 6z"/>
<path d="M1783 429 c6 -10 14 -16 19 -13 11 7 -1 31 -16 31 -11 0 -12 -4 -3
-18z"/>
<path d="M1810 441 c0 -5 7 -11 14 -14 10 -4 13 -1 9 9 -6 15 -23 19 -23 5z"/>
<path d="M2130 445 c0 -2 10 -10 23 -16 20 -11 21 -11 8 4 -13 16 -31 23 -31
12z"/>
<path d="M2435 440 c3 -5 8 -10 11 -10 2 0 4 5 4 10 0 6 -5 10 -11 10 -5 0 -7
-4 -4 -10z"/>
<path d="M659 418 c-5 -9 -5 -48 -1 -43 6 6 11 45 5 45 -2 0 -4 -1 -4 -2z"/>
<path d="M1729 415 c-1 -3 -2 -8 -3 -12 -3 -16 -18 -33 -28 -33 -6 0 -8 3 -5
7 4 3 2 12 -4 19 -9 11 -15 9 -29 -9 l-18 -22 -25 23 c-16 15 -27 20 -32 13
-3 -6 2 -11 12 -11 14 -1 13 -4 -7 -14 -14 -8 -28 -12 -32 -10 -5 3 -8 1 -8
-4 0 -5 12 -9 26 -9 15 0 31 -7 36 -14 8 -11 9 -11 5 3 -9 26 4 29 26 5 l19
-22 -7 25 c-7 22 -6 23 8 11 13 -10 14 -18 6 -35 -10 -20 -10 -20 5 -2 9 11
16 24 16 29 0 5 7 4 15 -3 15 -13 39 -5 30 11 -4 5 -2 9 4 9 21 0 20 -19 -1
-34 -12 -9 -18 -16 -12 -16 6 0 19 9 28 19 10 11 24 17 32 14 19 -7 18 11 -1
27 -8 7 -15 9 -15 5 0 -4 -7 -2 -15 5 -8 7 -12 16 -9 21 3 5 0 9 -5 9 -6 0
-12 -2 -12 -5z m-49 -35 c-12 -8 -12 -10 -1 -10 8 0 12 -3 8 -6 -9 -9 -28 6
-22 17 4 5 12 9 18 9 7 0 6 -4 -3 -10z m75 0 c4 -6 10 -8 15 -5 5 3 11 1 14
-4 7 -11 -13 -9 -31 2 -16 10 -36 -1 -28 -14 4 -5 1 -9 -4 -9 -14 0 -14 13 1
28 15 15 25 15 33 2z m-140 -10 c-3 -5 -12 -10 -18 -10 -7 0 -6 4 3 10 19 12
23 12 15 0z"/>
<path d="M2211 406 c-9 -10 -8 -15 2 -19 8 -3 13 3 13 14 0 23 0 23 -15 5z"/>
<path d="M835 388 l-20 -21 23 12 c12 7 28 9 35 5 8 -5 7 -2 -2 9 -7 9 -14 17
-15 16 0 0 -10 -10 -21 -21z"/>
<path d="M2140 405 c0 -8 29 -12 39 -5 9 5 4 8 -13 8 -14 0 -26 -2 -26 -3z"/>
<path d="M2121 392 c-1 -7 -5 -11 -10 -8 -12 8 -41 -3 -41 -15 0 -6 7 -6 18
-1 9 5 25 8 34 7 10 -2 21 2 25 7 3 6 1 8 -5 4 -5 -3 -13 0 -15 6 -4 10 -6 10
-6 0z"/>
<path d="M759 388 c-5 -16 -4 -46 2 -42 4 2 7 13 6 24 -1 17 -5 26 -8 18z"/>
<path d="M953 374 c0 -17 25 -26 33 -12 5 7 2 8 -6 3 -9 -6 -12 -4 -8 7 4 8 1
15 -6 15 -7 0 -13 -6 -13 -13z"/>
<path d="M999 376 c8 -10 9 -16 1 -21 -13 -8 -13 -25 0 -25 6 0 9 6 8 13 -2 6
4 11 12 9 11 -3 10 2 -4 17 -21 23 -35 29 -17 7z"/>
<path d="M2189 374 c6 -12 7 -24 4 -28 -3 -3 -4 -6 -1 -6 3 0 12 8 19 18 7 9
9 14 5 10 -5 -4 -15 0 -23 10 -13 15 -13 15 -4 -4z"/>
<path d="M780 366 c0 -2 8 -10 18 -17 15 -13 16 -12 3 4 -13 16 -21 21 -21 13z"/>
<path d="M846 358 c3 -4 9 -8 15 -8 5 0 9 4 9 8 0 5 -7 9 -15 9 -8 0 -12 -4
-9 -9z"/>
<path d="M1933 350 c-11 -16 -10 -18 2 -14 8 4 15 12 15 20 0 19 -3 18 -17 -6z"/>
<path d="M2025 360 c3 -5 11 -10 16 -10 6 0 7 5 4 10 -3 6 -11 10 -16 10 -6 0
-7 -4 -4 -10z"/>
<path d="M2236 362 c-3 -5 1 -9 9 -9 8 0 12 4 9 9 -3 4 -7 8 -9 8 -2 0 -6 -4
-9 -8z"/>
<path d="M900 344 c0 -1 8 -8 17 -15 9 -8 14 -9 10 -2 -4 6 -1 13 5 16 7 3 3
4 -9 4 -13 -1 -23 -2 -23 -3z"/>
<path d="M1487 330 c3 -11 9 -22 13 -25 5 -3 6 4 3 15 -3 11 -9 22 -13 25 -5
3 -6 -4 -3 -15z"/>
<path d="M2013 343 c4 -3 -1 -12 -11 -20 -15 -13 -15 -13 6 -3 19 9 23 30 5
30 -4 0 -3 -3 0 -7z"/>
<path d="M2056 341 c-3 -5 2 -15 12 -22 15 -12 16 -12 5 2 -7 9 -10 19 -6 22
3 4 4 7 0 7 -3 0 -8 -4 -11 -9z"/>
<path d="M1155 330 c3 -5 8 -10 11 -10 2 0 4 5 4 10 0 6 -5 10 -11 10 -5 0 -7
-4 -4 -10z"/>
<path d="M1391 324 c0 -11 3 -14 6 -6 3 7 2 16 -1 19 -3 4 -6 -2 -5 -13z"/>
<path d="M1537 321 c-4 -17 -3 -21 5 -13 5 5 8 16 6 23 -3 8 -7 3 -11 -10z"/>
<path d="M1626 323 c-6 -14 -5 -15 5 -6 7 7 10 15 7 18 -3 3 -9 -2 -12 -12z"/>
<path d="M1765 331 c-3 -5 -2 -12 3 -15 5 -3 9 1 9 9 0 17 -3 19 -12 6z"/>
<path d="M796 318 c3 -5 10 -6 15 -3 13 9 11 12 -6 12 -8 0 -12 -4 -9 -9z"/>
<path d="M835 321 c-3 -5 -2 -12 3 -15 5 -3 9 1 9 9 0 17 -3 19 -12 6z"/>
<path d="M937 315 c-4 -8 -3 -16 1 -19 4 -3 9 4 9 15 2 23 -3 25 -10 4z"/>
<path d="M1040 320 c-12 -7 -10 -9 7 -7 12 0 19 5 17 9 -6 10 -6 10 -24 -2z"/>
<path d="M1110 323 c8 -3 22 -11 30 -17 13 -10 13 -9 1 7 -7 9 -21 17 -30 16
-13 0 -14 -1 -1 -6z"/>
<path d="M1296 314 c-5 -13 -4 -14 7 -6 8 7 18 8 22 4 5 -4 5 -1 1 6 -10 17
-23 15 -30 -4z"/>
<path d="M1415 310 c-3 -6 1 -7 9 -4 18 7 21 14 7 14 -6 0 -13 -4 -16 -10z"/>
<path d="M1593 307 c0 -7 9 -14 20 -14 11 -1 18 -1 16 0 -2 2 -11 8 -20 15
-12 9 -16 9 -16 -1z"/>
<path d="M1226 298 c3 -4 9 -8 15 -8 5 0 9 4 9 8 0 5 -7 9 -15 9 -8 0 -12 -4
-9 -9z"/>
<path d="M1360 300 c-9 -6 -10 -10 -3 -10 6 0 15 5 18 10 8 12 4 12 -15 0z"/>
<path d="M1780 300 c-9 -6 -10 -10 -3 -10 6 0 15 5 18 10 8 12 4 12 -15 0z"/>
<path d="M2080 295 c-19 -22 -8 -25 13 -3 9 10 13 18 8 18 -5 0 -14 -7 -21
-15z"/>
<path d="M1813 285 c0 -8 4 -12 9 -9 5 3 6 10 3 15 -9 13 -12 11 -12 -6z"/>
<path d="M1390 278 c0 -4 4 -8 9 -8 6 0 12 4 15 8 3 5 -1 9 -9 9 -8 0 -15 -4
-15 -9z"/>
<path d="M1435 280 c-3 -5 -1 -10 4 -10 6 0 11 5 11 10 0 6 -2 10 -4 10 -3 0
-8 -4 -11 -10z"/>
<path d="M1466 278 c3 -5 10 -6 15 -3 13 9 11 12 -6 12 -8 0 -12 -4 -9 -9z"/>
<path d="M1496 253 c-6 -14 -5 -15 5 -6 7 7 10 15 7 18 -3 3 -9 -2 -12 -12z"/>
<path d="M1575 260 c-3 -5 -1 -10 4 -10 6 0 11 5 11 10 0 6 -2 10 -4 10 -3 0
-8 -4 -11 -10z"/>
</g>
</svg>
